# AST/ASF file generated using VICON BodyLanguage
# -----------------------------------------------
:version 1.10
:name VICON
:units
  mass 1.0
  length 0.45
  angle deg
:documentation
   .ast/.asf automatically generated from VICON data using
   VICON BodyBuilder and BodyLanguage model FoxedUp or BRILLIANT.MOD
:root
   order TX TY TZ RX RY RZ
   axis XYZ
   position 0 0 0  
   orientation 0 0 0 
:bonedata
  begin
     id 1 
     name lhipjoint
     direction 0.523584 -0.783993 0.333487 
     length 2.44404 
     axis 0 0 0  XYZ
  end
  begin
     id 2 
     name lfemur
     direction 0.34202 -0.939693 0  
     length 7.29523  
     axis 0 0 20  XYZ
    dof rx ry rz
    limits (-160.0 20.0)
           (-70.0 70.0)
           (-60.0 70.0)
  end
  begin
     id 3 
     name ltibia
     direction 0.34215 -0.939645 0   
     length 7.81194   
     axis 0 0 20   XYZ
    dof rx
    limits (-10.0 170.0)
  end
  begin
     id 4 
     name lfoot
     direction 0.0941847 -0.25877 0.961336   
     length 2.41437   
     axis -90 7.62852e-016 20   XYZ
    dof rx rz
    limits (-45.0 90.0)
           (-70.0 20.0)
  end
  begin
     id 5 
     name ltoes
     direction 1.53526e-011 -4.21768e-011 1   
     length 1.2048   
     axis -90 7.62852e-016 20   XYZ
    dof rx
    limits (-90.0 20.0)
  end
  begin
     id 6 
     name rhipjoint
     direction -0.46599 -0.814191 0.346332   
     length 2.35339  
     axis 0 0 0  XYZ 
  end
  begin
     id 7 
     name rfemur
     direction -0.34202 -0.939693 0   
     length 7.34966   
     axis 0 0 -20   XYZ
    dof rx ry rz
    limits (-160.0 20.0)
           (-70.0 70.0)
           (-70.0 60.0)
  end
  begin
     id 8 
     name rtibia
     direction -0.34202 -0.939693 0   
     length 7.89934   
     axis 0 0 -20   XYZ
    dof rx
    limits (-10.0 170.0)
 end
 begin
     id 9 
     name rfoot
     direction -0.0975468 -0.268008 0.958466   
     length 2.27725  
     axis -90 -7.62852e-016 -20   XYZ
    dof rx rz
    limits (-45.0 90.0)
           (-20.0 70.0)
  end
  begin
     id 10 
     name rtoes
     direction -1.53563e-011 -4.22022e-011 1   
     length 1.13683   
     axis -90 -7.62852e-016 -20   XYZ
    dof rx
    limits (-90.0 20.0)
  end
  begin
     id 11 
     name lowerback
     direction -0.00456414 0.999242 -0.0386661   
     length 2.16968   
     axis 0 0 0   XYZ
    dof rx ry rz
    limits (-20.0 45.0)
           (-30.0 30.0)
           (-30.0 30.0)
  end
  begin
     id 12 
     name upperback
     direction 0.0297078 0.998988 0.0337799   
     length 2.15674   
     axis 0 0 0   XYZ
    dof rx ry rz
    limits (-20.0 45.0)
           (-30.0 30.0)
           (-30.0 30.0)
  end
  begin
     id 13 
     name thorax
     direction 0.0309305 0.998202 0.0513506   
     length 2.16319   
     axis 0 0 0   XYZ
    dof rx ry rz
    limits (-20.0 45.0)
           (-30.0 30.0)
           (-30.0 30.0)
  end
  begin
     id 14 
     name lowerneck
     direction -0.103039 0.983474 0.148872   
     length 1.64318   
     axis 0 0 0   XYZ
    dof rx ry rz
    limits (-20.0 45.0)
           (-30.0 30.0)
           (-30.0 30.0)
  end
  begin
     id 15 
     name upperneck
     direction 0.128124 0.971079 -0.201469   
     length 1.68242   
     axis 0 0 0   XYZ
    dof rx ry rz
    limits (-20.0 45.0)
           (-30.0 30.0)
           (-30.0 30.0)
  end
  begin
     id 16
     name head
     direction 0.0496365 0.994919 -0.0875941  
     length 1.70108  
     axis 0 0 0   XYZ
    dof rx ry rz
    limits (-20.0 45.0)
           (-30.0 30.0)
           (-30.0 30.0)
  end
  begin
     id 17 
     name lclavicle
     direction 0.887148 0.430222 -0.166967  
     length 3.25763  
     axis 0 0 0   XYZ
    dof ry rz
    limits (-20.0 10.0)
           (0.0 20.0)
  end
  begin
     id 18 
     name lhumerus
     direction 1 -4.48962e-011 1.92156e-027   
     length 5.10755   
     axis 180 -30 -90   XYZ
    dof rx ry rz
    limits (-60.0 90.0)
           (-90.0 90.0)
           (-90.0 90.0)
  end
  begin
     id 19
     name lradius
     direction 1 -4.48958e-011 7.10963e-027   
     length 3.36253   
     axis 180 -30 -90   XYZ
    dof rx
    limits (-10.0 170.0)
  end
  begin
     id 20
     name lwrist
     direction 1 -4.48946e-011 1.82396e-026   
     length 1.68127   
     axis -1.15222e-014 90 90   XYZ
    dof ry
    limits (-180.0 0.0)
 end
  begin
     id 21 
     name lhand
     direction 1 -4.48919e-011 3.64759e-026   
     length 0.619088   
     axis -2.32787e-014 90 90   XYZ
    dof rx rz
    limits (-90.0 90.0)
           (-45.0 45.0)
  end
  begin
     id 22 
     name lfingers
     direction 1 -4.49012e-011 7.29744e-026   
     length 0.499125   
     axis -4.6558e-014 90 90   XYZ
    dof rx
    limits (0.0 90.0)
  end
  begin
     id 23
     name lthumb
     direction 0.707107 -6.35028e-011 0.707107   
     length 0.716646   
     axis -90 45 3.78391e-014   XYZ
    dof rx rz
    limits (-45.0 45.0)
           (-45.0 45.0)
  end
  begin
     id 24 
     name rclavicle
     direction -0.82886 0.533198 -0.169384   
     length 3.20647  
     axis 0 0 0   XYZ 
    dof ry rz
    limits (-10.0 20.0)
           (-20.0 0.0)
  end
  begin
     id 25 
     name rhumerus
     direction -1 -4.48973e-011 3.06863e-027  
     length 5.27387   
     axis 180 30 90   XYZ
    dof rx ry rz
    limits (-90.0 60.0)
           (-90.0 90.0)
           (-90.0 90.0)
  end
  begin
     id 26 
     name rradius
     direction -1 -4.48988e-011 9.4797e-027   
     length 3.40144   
     axis 180 30 90   XYZ
    dof rx
    limits (-10.0 170.0)
  end
  begin
     id 27 
     name rwrist
     direction -1 -4.48897e-011 1.82366e-026   
     length 1.70072   
     axis -1.15222e-014 -90 -90   XYZ
    dof ry
    limits (-180.0 0.0)
  end
  begin
     id 28
     name rhand
     direction -1 -4.48965e-011 3.64815e-026   
     length 0.742821   
     axis -2.32787e-014 -90 -90   XYZ
    dof rx rz
    limits (-90.0 90.0)
           (-45.0 45.0)
  end
  begin
     id 29
     name rfingers
     direction -1 -4.49016e-011 7.29754e-026   
     length 0.598881   
     axis -4.6558e-014 -90 -90   XYZ
    dof rx
    limits (0.0 90.0)
  end
  begin
     id 30
     name rthumb
     direction -0.707107 -6.3488e-011 0.707107   
     length 0.859877   
     axis -90 -45 -3.78391e-014   XYZ
    dof rx rz
    limits (-45.0 45.0)
           (-45.0 45.0)
  end
:hierarchy
  begin
    root lhipjoint rhipjoint lowerback
    lhipjoint lfemur
    lfemur ltibia
    ltibia lfoot
    lfoot ltoes
    rhipjoint rfemur
    rfemur rtibia
    rtibia rfoot
    rfoot rtoes
    lowerback upperback
    upperback thorax
    thorax lowerneck lclavicle rclavicle
    lowerneck upperneck
    upperneck head
    lclavicle lhumerus
    lhumerus lradius
    lradius lwrist
    lwrist lhand lthumb
    lhand lfingers
    rclavicle rhumerus
    rhumerus rradius
    rradius rwrist
    rwrist rhand rthumb
    rhand rfingers
  end

#!OML:ASF F:\Work\Patient Classification 1\justin\Session 1\justin.ASF
:FULLY-SPECIFIED
:DEGREES
2533
root 0.674399 18.4324 -4.44372 4.17304 -0.606722 -1.95252
lowerback 11.369 -0.678815 -0.983799
upperback -0.199195 -0.782603 3.77777
thorax -6.53663 -0.285544 4.68739
lowerneck -22.4483 -4.92811 -15.3569
upperneck 17.0196 -4.31502 11.5631
head 9.68189 -1.73114 5.9971
rclavicle -1.82882e-014 5.56597e-015
rhumerus 23.0792 38.6246 -50.4299
rradius 108.329
rwrist 6.92205
rhand 2.69359 -3.69118
rfingers 7.12502
rthumb 28.1677 -31.595
lclavicle -1.82882e-014 5.56597e-015
lhumerus 58.2376 -12.5369 63.5735
lradius 25.9058
lwrist -21.5743
lhand -8.66625 28.6295
lfingers 7.12502
lthumb 17.2677 57.8823
rfemur -8.82323 -0.14649 22.382
rtibia 21.176
rfoot -12.6162 -3.19495
rtoes -14.3541
lfemur -6.66396 2.48389 -16.8305
ltibia 18.1736
lfoot -10.6109 0.50407
ltoes -16.6397
2534
root 0.686165 18.4333 -4.44372 4.21049 -0.762636 -2.08007
lowerback 11.3621 -0.807773 -0.758604
upperback -0.205905 -0.926483 3.746
thorax -6.53101 -0.364322 4.54853
lowerneck -22.7191 -4.74975 -15.0482
upperneck 17.2785 -4.10678 11.3973
head 9.77764 -1.62897 5.92545
rclavicle -4.96962e-016 -2.22639e-014
rhumerus 24.277 37.472 -49.9666
rradius 109.437
rwrist 6.90305
rhand 3.7893 -6.77809
rfingers 7.12502
rthumb 29.2145 -34.5047
lclavicle -4.96962e-016 -2.22639e-014
lhumerus 57.2647 -12.5536 64.3468
lradius 25.0513
lwrist -21.8529
lhand -9.72104 28.8779
lfingers 7.12502
lthumb 16.2523 58.2168
rfemur -8.82629 -0.121763 22.4689
rtibia 21.144
rfoot -12.5669 -2.99665
rtoes -13.563
lfemur -6.64838 2.50502 -16.7145
ltibia 18.1317
lfoot -10.572 0.495942
ltoes -16.5506
2535
root 0.693087 18.4349 -4.44386 4.23324 -0.939366 -2.24412
lowerback 13.116 -0.831528 -0.233448
upperback -1.68219 -0.832549 3.49542
thorax -9.14194 -0.285102 4.06733
lowerneck -21.1578 -4.36125 -14.5944
upperneck 18.1073 -3.9457 11.1232
head 9.74869 -1.60771 5.79208
rclavicle 1.66979e-014 -2.46493e-014
rhumerus 22.6545 37.3579 -51.3205
rradius 110.64
rwrist 6.83071
rhand 3.76881 -5.51863
rfingers 7.12502
rthumb 29.195 -33.2487
lclavicle 1.66979e-014 -2.46493e-014
lhumerus 54.248 -14.6437 63.9949
lradius 25.3241
lwrist -20.773
lhand -9.727 29.7017
lfingers 7.12502
lthumb 16.2465 59.041
rfemur -8.80689 -0.0141215 22.6188
rtibia 21.0565
rfoot -12.5215 -2.89843
rtoes -13.1565
lfemur -6.63201 2.55541 -16.5406
ltibia 18.1289
lfoot -10.5255 0.482251
ltoes -15.9313
2536
root 0.702278 18.4373 -4.43799 4.16788 -1.15454 -2.20926
lowerback 9.91867 -0.829095 -0.119727
upperback 0.904516 -0.953521 3.33133
thorax -4.56326 -0.440342 3.67796
lowerneck -23.4763 -4.69911 -14.0692
upperneck 16.6719 -4.16229 11.1534
head 9.67655 -1.58672 5.64558
rclavicle 1.35174e-014 -2.46493e-014
rhumerus 28.0707 33.1451 -48.8892
rradius 111.022
rwrist 6.25632
rhand 3.96676 -5.29535
rfingers 7.12502
rthumb 29.384 -32.9924
lclavicle 1.35174e-014 -2.46493e-014
lhumerus 57.1648 -13.7346 62.5618
lradius 25.191
lwrist -20.0609
lhand -9.86103 29.9175
lfingers 7.12502
lthumb 16.1175 59.2673
rfemur -8.68434 -0.0450837 22.5347
rtibia 20.9554
rfoot -12.4256 -2.71696
rtoes -13.424
lfemur -6.49458 2.60483 -16.6092
ltibia 18.1575
lfoot -10.6076 0.507499
ltoes -15.6806
2537
root 0.715338 18.4404 -4.43315 4.13879 -1.43268 -2.11781
lowerback 10.3247 -0.855187 -0.285939
upperback 0.562224 -0.991844 3.31781
thorax -5.14427 -0.445749 3.78238
lowerneck -23.1156 -4.43485 -13.7216
upperneck 16.9395 -3.92184 10.8815
head 9.65861 -1.4953 5.53033
rclavicle 1.88845e-014 8.74653e-015
rhumerus 29.0287 32.1055 -48.7154
rradius 111.38
rwrist 5.97065
rhand 4.28214 -5.49421
rfingers 7.12502
rthumb 29.685 -33.1381
lclavicle 1.88845e-014 8.74653e-015
lhumerus 55.5936 -14.2856 63.0629
lradius 25.0088
lwrist -20.2848
lhand -9.76413 29.7952
lfingers 7.12502
lthumb 16.2108 59.1374
rfemur -8.64126 -0.0744654 22.3629
rtibia 20.891
rfoot -12.3339 -2.45316
rtoes -13.2925
lfemur -6.35734 2.64277 -16.7691
ltibia 18.1214
lfoot -10.6826 0.572479
ltoes -15.4908
